<svg width="170" height="43" viewBox="0 0 170 43" fill="none" xmlns="http://www.w3.org/2000/svg">
<g clip-path="url(#clip0_29_128)">
<path d="M24.533 17.7547C24.533 23.1674 20.3119 27.3903 14.5627 27.3903C10.1222 27.3903 6.81283 25.061 4.41526 21.6592C3.96782 23.2679 3.67234 25.0191 3.57104 26.8876H0V0.511106H3.57948V15.727C5.79133 11.3868 9.7085 8.11906 14.8245 8.11906C20.3119 8.11906 24.533 12.3001 24.533 17.7547ZM20.9535 17.7547C20.9535 14.0512 18.0409 11.6717 14.8245 11.6717C10.9579 11.6717 7.72459 14.2356 5.74912 18.3412C7.69926 21.5 10.6371 23.8461 14.5712 23.8461C18.3364 23.8377 20.9535 21.19 20.9535 17.7547Z" fill="#532093"/>
<path d="M51.4973 8.62178V26.8792H47.9178C47.8165 25.0191 47.5294 23.2595 47.0736 21.6508C44.676 25.0526 41.3666 27.3819 36.9261 27.3819C31.1854 27.3819 26.9559 23.159 26.9559 17.7463C26.9559 12.3001 31.1769 8.11068 36.6644 8.11068C41.7803 8.11068 45.6975 11.3784 47.9093 15.7186V8.62178H51.4973ZM45.7481 18.3328C43.7727 14.2272 40.5309 11.6633 36.6728 11.6633C33.4563 11.6633 30.5438 14.0429 30.5438 17.7463C30.5438 21.1816 33.1609 23.8293 36.9345 23.8293C40.8686 23.8377 43.8064 21.5 45.7481 18.3328Z" fill="#532093"/>
<path d="M63.6455 23.335H77.1108V26.8876H54.6293V23.5947C60.7583 21.5168 67.4361 17.3776 71.1169 12.1828H55.1443V8.63016H77.1192C75.1353 15.0818 69.4284 20.1343 63.6455 23.335Z" fill="#532093"/>
<path d="M103.433 8.62178V26.8792H99.854C99.7527 25.0191 99.4657 23.2595 99.0098 21.6508C96.6122 25.0526 93.3029 27.3819 88.8623 27.3819C83.1216 27.3819 78.8921 23.159 78.8921 17.7463C78.8921 12.3001 83.1132 8.11068 88.6006 8.11068C93.7165 8.11068 97.6337 11.3784 99.8456 15.7186V8.62178H103.433ZM97.6844 18.3328C95.7089 14.2272 92.4671 11.6633 88.609 11.6633C85.3926 11.6633 82.48 14.0429 82.48 17.7463C82.48 21.1816 85.0971 23.8293 88.8707 23.8293C92.8048 23.8377 95.7427 21.5 97.6844 18.3328Z" fill="#532093"/>
<path d="M124.091 8.64692V12.2414C123.534 12.0739 121.795 11.6717 120.005 11.6717C113.632 11.6717 111.318 15.4756 111.318 17.5033V26.8876H107.739V8.62178H111.318V11.8225C113.117 9.66076 115.81 8.11906 120.005 8.11906C121.778 8.11906 123.509 8.4961 124.091 8.64692Z" fill="#532093"/>
<path d="M125.569 4.0721C126.717 3.57775 127.637 2.66446 128.135 1.52494C128.625 2.66446 129.537 3.56937 130.676 4.04696C129.528 4.54131 128.608 5.4546 128.11 6.59412C127.629 5.4546 126.717 4.54969 125.569 4.0721ZM126.337 26.8876V8.62179H129.917V26.8792H126.337V26.8876Z" fill="#532093"/>
<path d="M149.528 1.01383V4.05534C149.03 3.85425 146.649 3.29287 143.905 3.29287C139.093 3.29287 137.979 6.24221 137.802 8.62179H142.884V12.1744H137.776V26.8876H134.197V9.38426C134.197 3.37666 137.894 0 143.652 0C146.565 0 148.869 0.779228 149.528 1.01383Z" fill="#532093"/>
<path d="M170 8.62178V21.5587C170 30.8507 165.391 35.5094 156.459 35.5094C151.816 35.5094 148.7 34.2777 146.497 32.9622V29.1917C148 30.0799 150.946 31.9567 156.459 31.9567C163.196 31.9567 166.041 28.8901 166.336 23.0836C166.404 22.6144 166.429 19.1204 166.429 18.5674C164.183 23.3936 159.709 27.3903 154.416 27.3903C148.962 27.3903 145.475 23.0585 145.475 16.4811C145.475 13.3307 145.864 9.61886 145.99 8.62178H149.578C149.443 9.6021 149.047 13.1463 149.047 16.4811C149.047 19.531 150.178 23.8377 154.669 23.8377C160.292 23.8377 165.407 17.4949 166.421 8.62178H170Z" fill="#532093"/>
<path d="M103.146 35.8529C103.146 35.9283 103.13 36.0037 103.087 36.0959C103.045 36.1797 102.978 36.2802 102.868 36.3891C102.767 36.4981 102.623 36.6237 102.446 36.7578C102.268 36.8919 102.049 37.0511 101.77 37.227C101.5 37.403 101.171 37.6041 100.791 37.8219C100.411 38.0398 99.9722 38.2911 99.4657 38.576C99.2377 38.7017 99.0436 38.8106 98.8832 38.9028C98.7228 38.9949 98.6046 39.0703 98.5201 39.1206C98.4695 39.1541 98.4104 39.2044 98.3344 39.2714C98.2584 39.3385 98.174 39.4306 98.0811 39.5312C97.9292 39.6736 97.7857 39.8161 97.6253 39.9585C97.4649 40.1009 97.3129 40.2434 97.1525 40.3607C96.9921 40.478 96.8233 40.5785 96.6544 40.6539C96.4856 40.7293 96.2998 40.7712 96.1057 40.7712C95.8862 40.7712 95.7173 40.7377 95.5823 40.6623C95.4472 40.5869 95.3797 40.478 95.3797 40.3272C95.3797 40.2518 95.4134 40.168 95.4725 40.0674C95.5316 39.9753 95.616 39.8831 95.7089 39.7825C95.8018 39.6904 95.9115 39.5982 96.0297 39.506C96.1479 39.4139 96.2576 39.3301 96.3758 39.2463C96.4856 39.1709 96.5869 39.0955 96.6797 39.0368C96.7726 38.9782 96.8401 38.9363 96.8824 38.9028C97.0681 38.7855 97.22 38.6933 97.3298 38.6179C97.4395 38.5425 97.4986 38.5006 97.5071 38.4922C97.7181 38.3414 97.9123 38.1822 98.0896 38.0146C98.2669 37.847 98.4188 37.6795 98.5455 37.5119C98.6637 37.3611 98.7481 37.1935 98.8072 37.0008C98.8663 36.8164 98.8916 36.6154 98.8916 36.4059C98.8916 36.3389 98.8832 36.2551 98.8578 36.1461C98.8325 36.0372 98.8072 35.9367 98.765 35.8361C98.7228 35.7356 98.6805 35.6518 98.6214 35.5764C98.5623 35.501 98.5033 35.4675 98.4273 35.4675C98.25 35.4675 98.0643 35.5345 97.8701 35.6602C97.6759 35.7859 97.4818 35.9451 97.296 36.121C97.1103 36.297 96.9246 36.5064 96.7388 36.741C96.5531 36.9756 96.3589 37.2354 96.1563 37.5119C96.0213 37.713 95.9115 37.8889 95.8355 38.0565C95.7595 38.2241 95.7005 38.3749 95.6582 38.509C95.616 38.643 95.5907 38.7687 95.5823 38.886C95.5738 38.9949 95.5654 39.1039 95.5569 39.1876C95.5569 39.2966 95.5316 39.3971 95.4894 39.4977C95.4472 39.5982 95.3881 39.682 95.329 39.7658C95.2615 39.8412 95.1855 39.9082 95.1095 39.9501C95.0335 39.992 94.9407 40.0171 94.8562 40.0171C94.6114 40.0171 94.4426 39.9417 94.3497 39.7825C94.2568 39.6233 94.2146 39.3804 94.2146 39.0536C94.2146 39.0452 94.2146 38.9949 94.2231 38.9111C94.2231 38.8274 94.2315 38.7184 94.2315 38.6011C94.2315 38.4754 94.24 38.3498 94.2484 38.2073C94.2568 38.0649 94.2568 37.9392 94.2653 37.8135C94.2653 37.6962 94.2737 37.5873 94.2737 37.5035C94.2737 37.4197 94.2822 37.3778 94.2822 37.3694C94.2906 37.1432 94.3075 36.917 94.3244 36.6991C94.3413 36.4813 94.3581 36.2551 94.3835 36.0288C94.4088 35.8026 94.4257 35.568 94.451 35.325C94.4763 35.082 94.5101 34.8307 94.5439 34.5625C94.6114 34.0514 94.6789 33.5571 94.738 33.0795C94.8056 32.6019 94.8984 32.1327 95.0166 31.6802C95.0251 31.6467 95.042 31.5881 95.0757 31.4959C95.1095 31.4121 95.1517 31.32 95.2024 31.2278C95.253 31.1356 95.3206 31.0518 95.3965 30.9848C95.4725 30.9178 95.5654 30.8759 95.6582 30.8759C95.844 30.8759 95.9875 30.901 96.0888 30.9597C96.1901 31.0183 96.2661 31.0853 96.3167 31.1691C96.3674 31.2529 96.3927 31.3367 96.4096 31.4289C96.418 31.521 96.4265 31.5965 96.4265 31.6635C96.4265 31.7221 96.4096 31.8311 96.3674 31.9735C96.3252 32.1159 96.283 32.317 96.2239 32.5684C96.131 32.9622 96.0466 33.3895 95.9622 33.8336C95.8777 34.2777 95.8018 34.7217 95.7511 35.1491C95.7427 35.2329 95.7258 35.3418 95.7089 35.4675C95.692 35.5931 95.6836 35.7272 95.6667 35.8696C95.6498 36.0121 95.6414 36.1461 95.6245 36.2886C95.6076 36.4226 95.5991 36.5483 95.5823 36.6656C95.7933 36.2802 96.0297 35.9283 96.2745 35.6267C96.5193 35.325 96.8064 35.0485 97.1272 34.8223C97.3467 34.6631 97.5746 34.5458 97.8026 34.462C98.0305 34.3782 98.25 34.3363 98.4526 34.3363C98.689 34.3363 98.9085 34.395 99.1195 34.5039C99.3306 34.6128 99.5079 34.7636 99.6683 34.948C99.8287 35.1323 99.9469 35.3334 100.04 35.5596C100.133 35.7859 100.175 36.0121 100.175 36.2299C100.175 36.2718 100.166 36.3221 100.158 36.3975C100.149 36.4729 100.133 36.5567 100.107 36.6405C100.082 36.7327 100.048 36.8248 99.9975 36.917C99.9553 37.0092 99.8962 37.1013 99.8202 37.1935C100.149 36.984 100.47 36.7913 100.766 36.5902C101.061 36.3975 101.365 36.2048 101.669 36.0288C101.821 35.9367 101.939 35.8613 102.032 35.7942C102.125 35.7272 102.209 35.6769 102.285 35.635C102.488 35.5094 102.631 35.4507 102.707 35.4507C102.859 35.4507 102.961 35.4926 103.028 35.5848C103.113 35.6518 103.146 35.744 103.146 35.8529Z" fill="#532093"/>
<path d="M108.136 34.9228C108.136 35.0066 108.127 35.1239 108.119 35.2831C108.11 35.4339 108.094 35.6015 108.077 35.7691C108.06 35.9367 108.051 36.1042 108.034 36.2634C108.018 36.4226 108.009 36.5567 108.009 36.6572C108.001 36.9086 107.975 37.1684 107.95 37.4365C107.925 37.7046 107.883 37.9727 107.84 38.2408C107.798 38.509 107.747 38.7771 107.697 39.0452C107.638 39.3133 107.587 39.5647 107.528 39.8077C107.477 40.0004 107.427 40.2015 107.368 40.4026C107.308 40.6037 107.232 40.7964 107.156 40.9891C107.081 41.1818 106.996 41.3661 106.903 41.5505C106.81 41.7348 106.717 41.894 106.625 42.0448C106.211 42.6816 105.62 42.9916 104.852 42.9916C104.371 42.9916 103.898 42.8995 103.425 42.7151C103.265 42.6565 103.087 42.5727 102.91 42.4721C102.733 42.3716 102.572 42.2627 102.429 42.1537C102.285 42.0448 102.167 41.9275 102.074 41.8102C101.981 41.6929 101.931 41.584 101.931 41.4751C101.931 41.408 101.939 41.3326 101.948 41.2656C101.956 41.1902 101.981 41.1315 102.015 41.0729C102.049 41.0142 102.091 40.964 102.142 40.9304C102.192 40.8969 102.26 40.8718 102.353 40.8718C102.412 40.8718 102.471 40.8885 102.513 40.9137C102.564 40.9388 102.606 40.9723 102.648 41.0226C102.8 41.1818 102.952 41.3075 103.104 41.4248C103.265 41.5337 103.425 41.6259 103.602 41.7013C103.78 41.7767 103.965 41.827 104.16 41.8605C104.354 41.894 104.573 41.9108 104.793 41.9108C104.919 41.9108 105.046 41.8689 105.164 41.7935C105.282 41.718 105.392 41.6091 105.493 41.4751C105.595 41.341 105.688 41.1902 105.78 41.0142C105.865 40.8383 105.949 40.6623 106.017 40.4696C106.084 40.2769 106.152 40.0842 106.203 39.8915C106.253 39.6988 106.295 39.5144 106.338 39.3468C106.38 39.1458 106.414 38.9447 106.439 38.7436C106.464 38.5425 106.49 38.333 106.506 38.0984C106.388 38.1989 106.245 38.3079 106.084 38.4168C105.924 38.5257 105.755 38.6346 105.586 38.7436C105.409 38.8525 105.232 38.953 105.046 39.0536C104.86 39.1541 104.674 39.2379 104.497 39.3133C104.311 39.3887 104.143 39.4474 103.974 39.4893C103.805 39.5312 103.653 39.5563 103.518 39.5563C103.298 39.5563 103.104 39.5144 102.935 39.4223C102.775 39.3301 102.64 39.2128 102.53 39.0703C102.42 38.9279 102.344 38.7603 102.294 38.576C102.243 38.3917 102.218 38.1989 102.218 38.0146C102.218 37.8889 102.226 37.7381 102.243 37.5705C102.26 37.403 102.285 37.2354 102.319 37.0678C102.344 36.9002 102.387 36.7327 102.42 36.5735C102.463 36.4143 102.496 36.2718 102.539 36.1461C102.547 36.1294 102.564 36.0707 102.589 35.9869C102.615 35.9032 102.648 35.8026 102.674 35.6937C102.707 35.5848 102.733 35.4842 102.767 35.392C102.792 35.2999 102.817 35.2329 102.826 35.2077C102.876 35.0653 102.919 34.948 102.969 34.839C103.02 34.7301 103.079 34.6463 103.146 34.5709C103.214 34.4955 103.307 34.4452 103.408 34.4117C103.509 34.3782 103.636 34.3531 103.788 34.3531C103.898 34.3531 103.991 34.3782 104.067 34.4201C104.151 34.462 104.21 34.529 104.261 34.6212C104.311 34.7134 104.337 34.7972 104.345 34.8726C104.354 34.948 104.354 35.0318 104.354 35.1155C104.354 35.1491 104.328 35.2077 104.286 35.3083C104.244 35.4088 104.193 35.5094 104.143 35.6267C104.084 35.7356 104.033 35.8445 103.982 35.9451C103.932 36.0456 103.898 36.1042 103.889 36.1378C103.771 36.4226 103.678 36.674 103.602 36.9002C103.526 37.1265 103.484 37.3527 103.484 37.5873C103.484 37.6962 103.493 37.8051 103.518 37.8973C103.543 37.9895 103.569 38.0733 103.602 38.1487C103.636 38.2157 103.678 38.2744 103.721 38.3079C103.763 38.3498 103.813 38.3665 103.856 38.3665C103.982 38.3665 104.134 38.3414 104.311 38.2911C104.489 38.2408 104.666 38.1738 104.86 38.09C105.046 38.0062 105.24 37.8973 105.434 37.78C105.628 37.6627 105.806 37.5286 105.966 37.3862C106.127 37.2438 106.262 37.0929 106.38 36.9337C106.498 36.7746 106.574 36.6154 106.616 36.4478C106.625 36.4059 106.633 36.3472 106.642 36.2634C106.65 36.1797 106.65 36.0875 106.658 35.9786C106.658 35.8696 106.667 35.7607 106.667 35.635C106.667 35.5094 106.675 35.3921 106.684 35.2831C106.692 35.1742 106.701 35.0737 106.709 34.9731C106.717 34.8809 106.734 34.8055 106.751 34.7553C106.819 34.5458 106.903 34.3866 107.013 34.2777C107.123 34.1687 107.266 34.1185 107.444 34.1185C107.587 34.1185 107.705 34.1352 107.798 34.1687C107.891 34.2023 107.958 34.2525 108.009 34.3279C108.06 34.395 108.094 34.4871 108.11 34.5961C108.127 34.6463 108.136 34.7804 108.136 34.9228Z" fill="#532093"/>
<path d="M122.893 34.7301C122.893 34.9731 122.85 35.2496 122.775 35.5512C122.69 35.8529 122.58 36.1713 122.437 36.4897C122.293 36.8164 122.116 37.1348 121.905 37.4449C121.694 37.7633 121.466 38.0565 121.204 38.3246C120.799 38.752 120.419 39.0955 120.065 39.3804C119.71 39.6569 119.355 39.8831 119.001 40.0423C118.646 40.2099 118.283 40.3188 117.912 40.3858C117.54 40.4528 117.127 40.478 116.688 40.478C116.451 40.478 116.223 40.4361 116.012 40.3523C115.793 40.2685 115.59 40.1512 115.404 40.0088C115.219 39.8663 115.05 39.6988 114.89 39.4977C114.738 39.305 114.602 39.0955 114.493 38.886C114.383 38.6765 114.299 38.4503 114.239 38.2241C114.18 37.9979 114.147 37.78 114.147 37.5705C114.147 37.2019 114.206 36.7997 114.324 36.3556C114.442 35.9115 114.602 35.4675 114.822 35.0234C115.033 34.5793 115.295 34.1436 115.599 33.7247C115.903 33.3057 116.24 32.9371 116.612 32.6103C116.983 32.2835 117.388 32.0238 117.827 31.8311C118.266 31.6383 118.722 31.5378 119.195 31.5378C119.44 31.5378 119.685 31.5546 119.921 31.5797C120.157 31.6048 120.385 31.6551 120.596 31.7054C120.807 31.764 121.002 31.8311 121.187 31.9148C121.373 31.9986 121.525 32.0908 121.669 32.1914C121.947 32.4008 122.175 32.6019 122.336 32.7862C122.496 32.979 122.623 33.1633 122.699 33.3644C122.783 33.5571 122.834 33.7666 122.85 33.9844C122.876 34.2274 122.893 34.4704 122.893 34.7301ZM119.203 32.7192C118.959 32.7192 118.722 32.7695 118.503 32.87C118.283 32.9706 118.064 33.1046 117.87 33.2722C117.667 33.4398 117.473 33.6241 117.296 33.8336C117.11 34.0431 116.941 34.2525 116.772 34.462C116.629 34.6547 116.485 34.8642 116.35 35.1072C116.215 35.3502 116.088 35.6015 115.987 35.8696C115.886 36.1378 115.801 36.4143 115.734 36.6991C115.675 36.984 115.641 37.2605 115.641 37.5454C115.641 37.7968 115.683 38.023 115.759 38.2241C115.835 38.4336 115.945 38.6095 116.08 38.752C116.215 38.8944 116.367 39.0117 116.536 39.0955C116.705 39.1793 116.882 39.2212 117.059 39.2212C117.355 39.2212 117.642 39.1793 117.92 39.0955C118.199 39.0117 118.469 38.9028 118.722 38.7603C118.976 38.6179 119.22 38.4503 119.457 38.266C119.685 38.0733 119.904 37.8722 120.09 37.6543C120.284 37.4365 120.461 37.2019 120.613 36.9673C120.765 36.7243 120.9 36.4897 121.01 36.2551C121.12 36.0288 121.204 35.7607 121.28 35.4591C121.356 35.1574 121.398 34.8474 121.398 34.5374C121.398 34.4117 121.39 34.2861 121.382 34.1604C121.365 34.0431 121.339 33.9258 121.297 33.8085C121.263 33.6995 121.187 33.5906 121.086 33.4649C120.976 33.3392 120.841 33.2219 120.664 33.113C120.487 33.0041 120.284 32.9119 120.039 32.8365C119.786 32.7527 119.516 32.7192 119.203 32.7192Z" fill="#532093"/>
<path d="M129.967 35.4339C129.967 35.4675 129.959 35.5177 129.942 35.5764C129.925 35.635 129.9 35.6937 129.874 35.7523C129.841 35.811 129.807 35.8613 129.756 35.9032C129.706 35.9451 129.646 35.9702 129.579 35.9702C129.562 35.9702 129.528 35.9702 129.478 35.9702C129.427 35.9702 129.368 35.9618 129.317 35.9618C129.258 35.9618 129.207 35.9534 129.157 35.9534C129.106 35.9534 129.072 35.9534 129.047 35.9534C128.397 35.9869 127.831 36.2216 127.35 36.6489C127.24 36.7494 127.131 36.8583 127.012 36.9924C126.894 37.1265 126.785 37.2689 126.675 37.4281C126.565 37.5873 126.455 37.7549 126.354 37.9308C126.253 38.1068 126.16 38.2995 126.075 38.4922C126.008 38.6514 125.94 38.819 125.881 38.9866C125.822 39.1541 125.763 39.3301 125.721 39.5228C125.695 39.6233 125.67 39.7155 125.662 39.7909C125.645 39.8663 125.628 39.9585 125.594 40.059C125.577 40.1177 125.544 40.1763 125.493 40.2182C125.442 40.2601 125.392 40.302 125.332 40.3272C125.273 40.3523 125.206 40.3774 125.138 40.3942C125.071 40.411 125.003 40.4193 124.936 40.4193C124.682 40.4193 124.514 40.3104 124.421 40.0842C124.328 39.858 124.277 39.5228 124.277 39.0787C124.277 38.9782 124.277 38.886 124.277 38.7938C124.277 38.7017 124.286 38.6179 124.286 38.5257C124.294 38.4336 124.294 38.3414 124.303 38.2408C124.311 38.1403 124.319 38.0314 124.328 37.9057C124.345 37.7214 124.362 37.5035 124.395 37.2521C124.421 37.0008 124.454 36.7494 124.48 36.4897C124.514 36.2299 124.547 35.9786 124.581 35.744C124.615 35.501 124.657 35.2999 124.699 35.1323C124.75 34.9228 124.826 34.7636 124.936 34.6463C125.045 34.529 125.214 34.4704 125.425 34.4704C125.484 34.4704 125.552 34.4871 125.62 34.5207C125.687 34.5542 125.738 34.5961 125.797 34.638C125.847 34.6882 125.89 34.7385 125.923 34.7888C125.957 34.8474 125.974 34.8893 125.983 34.9312L125.991 35.0401C125.991 35.1491 125.983 35.2747 125.966 35.4256C125.949 35.5764 125.923 35.7272 125.89 35.8948C125.856 36.0624 125.822 36.2299 125.78 36.3975C125.746 36.5651 125.704 36.7243 125.67 36.8835C125.636 37.0343 125.603 37.1767 125.569 37.3108C125.544 37.4449 125.518 37.5454 125.501 37.6376C125.636 37.3527 125.788 37.0762 125.94 36.8081C126.101 36.5399 126.261 36.297 126.447 36.0707C126.624 35.8445 126.818 35.6434 127.029 35.4591C127.24 35.2831 127.46 35.1407 127.696 35.0318C127.882 34.948 128.059 34.8809 128.211 34.839C128.372 34.7972 128.507 34.772 128.633 34.772C128.785 34.772 128.937 34.7888 129.098 34.8223C129.258 34.8558 129.402 34.8977 129.528 34.9564C129.663 35.015 129.765 35.0904 129.857 35.1742C129.925 35.2245 129.967 35.325 129.967 35.4339Z" fill="#532093"/>
<path d="M136.772 36.3556C136.772 36.4478 136.738 36.5567 136.67 36.6991C136.603 36.8332 136.51 36.9924 136.392 37.16C136.274 37.3276 136.13 37.5119 135.97 37.7046C135.809 37.8973 135.623 38.0984 135.438 38.2995C135.227 38.5173 135.007 38.7352 134.762 38.953C134.518 39.1709 134.264 39.372 133.986 39.5731C133.716 39.7658 133.445 39.9166 133.184 40.0255C132.922 40.1345 132.669 40.1847 132.441 40.1847C132.171 40.1847 131.926 40.1428 131.723 40.0507C131.521 39.9585 131.352 39.8328 131.208 39.6736C131.065 39.5144 130.947 39.3385 130.862 39.129C130.769 38.9279 130.702 38.7101 130.651 38.4838C130.6 38.2576 130.558 38.023 130.541 37.7968C130.524 37.5622 130.516 37.3443 130.516 37.1348C130.516 37.0511 130.524 36.9337 130.533 36.7662C130.541 36.5986 130.558 36.431 130.584 36.2467C130.609 36.0624 130.626 35.8948 130.651 35.7188C130.676 35.5512 130.702 35.4172 130.727 35.3166C130.786 35.1239 130.921 34.948 131.132 34.772C131.335 34.6128 131.563 34.529 131.816 34.529C132.069 34.529 132.196 34.6799 132.196 34.9815C132.196 35.1239 132.179 35.2747 132.154 35.4423C132.128 35.6015 132.103 35.7607 132.069 35.9199C132.019 36.2048 131.985 36.4562 131.96 36.6824C131.943 36.9086 131.934 37.1097 131.934 37.2857C131.934 37.4867 131.943 37.6795 131.968 37.8638C131.993 38.0481 132.027 38.2157 132.069 38.3581C132.112 38.5006 132.171 38.6179 132.238 38.7101C132.306 38.8022 132.39 38.8441 132.483 38.8441C132.601 38.8441 132.719 38.8357 132.846 38.8106C132.973 38.7855 133.125 38.7352 133.302 38.6346C133.64 38.4503 133.994 38.2073 134.374 37.8973C134.509 37.7884 134.661 37.6627 134.83 37.5119C134.999 37.3611 135.168 37.2103 135.336 37.0511C135.505 36.8919 135.666 36.741 135.809 36.5902C135.961 36.4394 136.079 36.3053 136.164 36.1964C136.172 36.1797 136.189 36.1545 136.214 36.121C136.24 36.0959 136.257 36.0624 136.29 36.0288C136.316 35.9953 136.35 35.9702 136.383 35.9534C136.417 35.9283 136.451 35.9199 136.476 35.9199C136.535 35.9199 136.586 35.9283 136.611 35.9451C136.637 35.9618 136.67 36.0121 136.704 36.1042C136.746 36.2132 136.772 36.2886 136.772 36.3556ZM133.116 31.5629C133.116 31.6886 133.099 31.8143 133.057 31.9232C133.015 32.0405 132.964 32.1495 132.888 32.25C132.736 32.4595 132.508 32.56 132.204 32.56C132.095 32.56 131.985 32.5516 131.867 32.5349C131.757 32.5181 131.647 32.4846 131.563 32.4511C131.47 32.4176 131.402 32.3757 131.343 32.317C131.284 32.2668 131.259 32.1997 131.259 32.1327C131.259 32.0154 131.293 31.8813 131.352 31.7473C131.411 31.6132 131.495 31.4875 131.597 31.3702C131.698 31.2529 131.808 31.1608 131.926 31.0853C132.044 31.0099 132.162 30.968 132.272 30.968C132.407 30.968 132.534 30.9764 132.635 30.9932C132.736 31.0099 132.829 31.0435 132.905 31.0853C132.981 31.1272 133.032 31.1859 133.074 31.2697C133.099 31.3451 133.116 31.4456 133.116 31.5629Z" fill="#532093"/>
<path d="M144.192 35.2329C144.192 35.2999 144.175 35.3753 144.15 35.4507C144.125 35.5261 144.083 35.6015 144.032 35.6769C143.981 35.7523 143.922 35.8194 143.855 35.878C143.787 35.9367 143.728 35.9953 143.66 36.0372C143.517 36.1294 143.314 36.2132 143.044 36.2802C142.774 36.3472 142.453 36.3891 142.073 36.3891C141.964 36.3891 141.845 36.3808 141.727 36.364C141.601 36.3472 141.482 36.3305 141.347 36.297C141.221 36.2718 141.094 36.2383 140.967 36.1964C140.841 36.1545 140.723 36.1126 140.613 36.0624C140.638 36.0959 140.655 36.1461 140.672 36.2048C140.689 36.2634 140.697 36.3305 140.706 36.3975C140.714 36.4645 140.714 36.5232 140.714 36.5902C140.714 36.6489 140.714 36.6991 140.714 36.7327C140.714 36.984 140.672 37.227 140.579 37.4784C140.495 37.7214 140.376 37.9643 140.233 38.1906C140.089 38.4168 139.921 38.6263 139.743 38.819C139.558 39.0117 139.372 39.1793 139.178 39.3133C139.026 39.4223 138.857 39.5228 138.671 39.6066C138.485 39.6904 138.291 39.7574 138.08 39.8077C137.878 39.8663 137.666 39.8998 137.447 39.9334C137.227 39.9585 137.008 39.9753 136.789 39.9753C136.603 39.9753 136.425 39.9334 136.257 39.8412C136.088 39.749 135.944 39.6401 135.809 39.4977C135.683 39.3552 135.581 39.196 135.505 39.0201C135.429 38.8441 135.387 38.6682 135.387 38.4922C135.387 38.1822 135.429 37.8806 135.514 37.5957C135.598 37.3108 135.708 37.0343 135.851 36.7662C135.995 36.4981 136.155 36.2383 136.341 35.9786C136.527 35.7188 136.729 35.4675 136.932 35.2161C137.05 35.0653 137.194 34.9228 137.346 34.7888C137.506 34.6463 137.666 34.5207 137.844 34.4117C138.021 34.3028 138.19 34.2106 138.376 34.1436C138.553 34.0766 138.722 34.0431 138.891 34.0431C139.026 34.0431 139.144 34.0598 139.245 34.0933C139.346 34.1269 139.439 34.1687 139.524 34.2274C139.608 34.2861 139.693 34.3531 139.769 34.4369C139.845 34.5207 139.929 34.6128 140.013 34.7134L140.14 34.8474C140.174 34.8809 140.258 34.9228 140.393 34.9899C140.528 35.0485 140.697 35.1156 140.891 35.1742C141.086 35.2329 141.288 35.2915 141.499 35.3334C141.71 35.3753 141.904 35.4004 142.073 35.4004C142.251 35.4004 142.419 35.4004 142.571 35.3921C142.732 35.3921 142.884 35.3753 143.044 35.3502C143.205 35.325 143.365 35.2831 143.542 35.2329C143.72 35.1826 143.905 35.1072 144.125 35.015C144.142 35.0485 144.159 35.0988 144.167 35.1491C144.184 35.1574 144.192 35.1993 144.192 35.2329ZM139.634 36.5483C139.634 36.4478 139.625 36.3472 139.617 36.2467C139.608 36.1378 139.583 36.0456 139.558 35.9534C139.524 35.8613 139.482 35.7859 139.431 35.7104C139.372 35.6434 139.304 35.5931 139.211 35.5764C139.076 35.5429 138.967 35.501 138.874 35.4591C138.789 35.4172 138.722 35.3837 138.671 35.3418C138.62 35.3083 138.587 35.2747 138.561 35.258C138.544 35.2329 138.528 35.2245 138.519 35.2245C138.485 35.2245 138.443 35.2496 138.384 35.2999C138.325 35.3502 138.266 35.4172 138.198 35.501C138.131 35.5848 138.063 35.6686 137.987 35.7607C137.911 35.8529 137.844 35.9451 137.776 36.0205C137.692 36.121 137.616 36.2216 137.548 36.3137C137.472 36.4059 137.405 36.5064 137.337 36.607C137.27 36.7075 137.202 36.8164 137.135 36.9338C137.067 37.0427 137 37.1684 136.932 37.3108C136.873 37.4365 136.822 37.5873 136.789 37.7716C136.755 37.956 136.738 38.1235 136.738 38.2827C136.738 38.3498 136.746 38.4168 136.763 38.4838C136.78 38.5509 136.805 38.6095 136.831 38.6682C136.864 38.7268 136.907 38.7687 136.957 38.8022C137.008 38.8357 137.067 38.8525 137.143 38.8525C137.32 38.8525 137.472 38.8441 137.599 38.8274C137.717 38.8106 137.835 38.7771 137.937 38.7352C138.046 38.6933 138.148 38.6263 138.257 38.5509C138.367 38.4755 138.494 38.3833 138.646 38.266C138.713 38.2157 138.789 38.1487 138.857 38.0733C138.924 37.9979 139 37.9225 139.068 37.8387C139.135 37.7549 139.203 37.6711 139.27 37.5789C139.338 37.4868 139.397 37.403 139.456 37.3108C139.49 37.2605 139.515 37.2019 139.532 37.1265C139.558 37.0511 139.574 36.9756 139.583 36.9002C139.6 36.8248 139.608 36.7494 139.608 36.6824C139.634 36.6237 139.634 36.5818 139.634 36.5483Z" fill="#532093"/>
</g>
<defs>
<clipPath id="clip0_29_128">
<rect width="170" height="43" fill="white"/>
</clipPath>
</defs>
</svg>
