<svg width="170" height="36" viewBox="0 0 170 36" fill="none" xmlns="http://www.w3.org/2000/svg">
<path d="M24.533 17.7547C24.533 23.1674 20.3119 27.3903 14.5627 27.3903C10.1222 27.3903 6.81283 25.061 4.41526 21.6592C3.96782 23.2679 3.67234 25.0191 3.57104 26.8876H0V0.511106H3.57948V15.727C5.79133 11.3868 9.7085 8.11906 14.8245 8.11906C20.3119 8.11906 24.533 12.3001 24.533 17.7547ZM20.9535 17.7547C20.9535 14.0512 18.0409 11.6717 14.8245 11.6717C10.9579 11.6717 7.72459 14.2356 5.74912 18.3412C7.69926 21.5 10.6371 23.8461 14.5712 23.8461C18.3364 23.8377 20.9535 21.19 20.9535 17.7547Z" fill="#532093"/>
<path d="M51.4973 8.62178V26.8792H47.9178C47.8165 25.0191 47.5294 23.2595 47.0736 21.6508C44.676 25.0526 41.3666 27.3819 36.9261 27.3819C31.1854 27.3819 26.9559 23.159 26.9559 17.7463C26.9559 12.3001 31.1769 8.11068 36.6644 8.11068C41.7803 8.11068 45.6975 11.3784 47.9093 15.7186V8.62178H51.4973ZM45.7481 18.3328C43.7727 14.2272 40.5309 11.6633 36.6728 11.6633C33.4563 11.6633 30.5438 14.0429 30.5438 17.7463C30.5438 21.1816 33.1609 23.8293 36.9345 23.8293C40.8686 23.8377 43.8064 21.5 45.7481 18.3328Z" fill="#532093"/>
<path d="M63.6455 23.335H77.1108V26.8876H54.6293V23.5947C60.7583 21.5168 67.4361 17.3776 71.1169 12.1828H55.1443V8.63016H77.1192C75.1353 15.0818 69.4284 20.1343 63.6455 23.335Z" fill="#532093"/>
<path d="M103.433 8.62178V26.8792H99.854C99.7527 25.0191 99.4657 23.2595 99.0098 21.6508C96.6122 25.0526 93.3029 27.3819 88.8623 27.3819C83.1216 27.3819 78.8921 23.159 78.8921 17.7463C78.8921 12.3001 83.1132 8.11068 88.6006 8.11068C93.7165 8.11068 97.6337 11.3784 99.8456 15.7186V8.62178H103.433ZM97.6844 18.3328C95.7089 14.2272 92.4671 11.6633 88.609 11.6633C85.3926 11.6633 82.48 14.0429 82.48 17.7463C82.48 21.1816 85.0971 23.8293 88.8707 23.8293C92.8048 23.8377 95.7427 21.5 97.6844 18.3328Z" fill="#532093"/>
<path d="M124.091 8.64692V12.2414C123.534 12.0739 121.795 11.6717 120.005 11.6717C113.632 11.6717 111.318 15.4756 111.318 17.5033V26.8876H107.739V8.62178H111.318V11.8225C113.117 9.66076 115.81 8.11906 120.005 8.11906C121.778 8.11906 123.509 8.4961 124.091 8.64692Z" fill="#532093"/>
<path d="M125.569 4.0721C126.717 3.57775 127.637 2.66446 128.135 1.52494C128.625 2.66446 129.537 3.56937 130.676 4.04696C129.528 4.54131 128.608 5.4546 128.11 6.59412C127.629 5.4546 126.717 4.54969 125.569 4.0721ZM126.337 26.8876V8.62179H129.917V26.8792H126.337V26.8876Z" fill="#532093"/>
<path d="M149.528 1.01383V4.05534C149.03 3.85425 146.649 3.29287 143.905 3.29287C139.093 3.29287 137.979 6.24221 137.802 8.62179H142.884V12.1744H137.776V26.8876H134.197V9.38426C134.197 3.37666 137.894 0 143.652 0C146.565 0 148.869 0.779228 149.528 1.01383Z" fill="#532093"/>
<path d="M170 8.62178V21.5587C170 30.8507 165.391 35.5094 156.459 35.5094C151.816 35.5094 148.7 34.2777 146.497 32.9622V29.1917C148 30.0799 150.946 31.9567 156.459 31.9567C163.196 31.9567 166.041 28.8901 166.336 23.0836C166.404 22.6144 166.429 19.1204 166.429 18.5674C164.183 23.3936 159.709 27.3903 154.416 27.3903C148.962 27.3903 145.475 23.0585 145.475 16.4811C145.475 13.3307 145.864 9.61886 145.99 8.62178H149.578C149.443 9.6021 149.047 13.1463 149.047 16.4811C149.047 19.531 150.178 23.8377 154.669 23.8377C160.292 23.8377 165.407 17.4949 166.421 8.62178H170Z" fill="#532093"/>
</svg>
